<svg width="24" height="25" viewBox="0 0 24 25" fill="none" xmlns="http://www.w3.org/2000/svg">
<path d="M12 12.3689C13.8231 12.3689 15.2997 10.7567 15.2997 8.78292C15.2997 6.83929 13.8231 5.29492 12 5.29492C10.1844 5.29492 8.6928 6.86189 8.70034 8.79799C8.70787 10.7642 10.1769 12.3689 12 12.3689ZM12 11.0505C10.9604 11.0505 10.079 10.0636 10.079 8.79799C10.0714 7.5625 10.9528 6.61328 12 6.61328C13.0547 6.61328 13.921 7.54743 13.921 8.78292C13.921 10.0485 13.0472 11.0505 12 11.0505ZM7.29911 19.375H16.6934C17.9967 19.375 18.6219 18.9607 18.6219 18.0717C18.6219 16 16.0379 13.2427 12 13.2427C7.96205 13.2427 5.37054 16 5.37054 18.0717C5.37054 18.9607 5.99582 19.375 7.29911 19.375ZM7.06557 18.0566C6.88477 18.0566 6.81697 17.9964 6.81697 17.8608C6.81697 16.7081 8.67774 14.5611 12 14.5611C15.3147 14.5611 17.1755 16.7081 17.1755 17.8608C17.1755 17.9964 17.1077 18.0566 16.9269 18.0566H7.06557Z" fill="#A8A8A8"/>
</svg>
