<svg width="24" height="25" viewBox="0 0 24 25" fill="none" xmlns="http://www.w3.org/2000/svg">
<path d="M15.9325 12.279C17.7556 12.279 19.2321 10.6744 19.2321 8.70061C19.2321 6.75698 17.7631 5.20508 15.9325 5.20508C14.1244 5.20508 12.6328 6.77958 12.6328 8.71568C12.6403 10.6819 14.1169 12.279 15.9325 12.279ZM7.20116 12.4523C8.79072 12.4523 10.0714 11.0435 10.0714 9.30329C10.0714 7.60826 8.79072 6.23717 7.20116 6.23717C5.62666 6.23717 4.32337 7.63086 4.3309 9.31083C4.3309 11.0511 5.61913 12.4523 7.20116 12.4523ZM15.9325 10.9607C14.8928 10.9607 14.0114 9.98131 14.0114 8.70815C14.0114 7.48019 14.8853 6.52344 15.9325 6.52344C16.9872 6.52344 17.8535 7.46512 17.8535 8.70061C17.8535 9.96624 16.9796 10.9607 15.9325 10.9607ZM7.20116 11.149C6.34988 11.149 5.62666 10.3354 5.62666 9.31083C5.62666 8.33147 6.34234 7.53292 7.20116 7.53292C8.07504 7.53292 8.78319 8.31641 8.78319 9.30329C8.78319 10.3354 8.05998 11.149 7.20116 11.149ZM3.05774 19.3756H8.91126C8.49692 19.1345 8.21818 18.5845 8.27091 18.0873H2.98994C2.84681 18.0873 2.78654 18.0195 2.78654 17.8915C2.78654 16.1663 4.80551 14.524 7.19362 14.524C8.03737 14.524 8.88112 14.7349 9.529 15.0965C9.78514 14.7274 10.1015 14.411 10.5159 14.1398C9.55914 13.5522 8.36885 13.2358 7.19362 13.2358C4.00696 13.2358 1.43051 15.5109 1.43051 18.012C1.43051 18.916 1.97292 19.3756 3.05774 19.3756ZM11.2391 19.3756H20.6258C21.9291 19.3756 22.5619 18.9612 22.5619 18.0723C22.5619 16.0006 19.9704 13.2433 15.9325 13.2433C11.8945 13.2433 9.303 16.0006 9.303 18.0723C9.303 18.9612 9.93581 19.3756 11.2391 19.3756ZM10.998 18.0572C10.8248 18.0572 10.757 17.9969 10.757 17.8613C10.757 16.7087 12.6177 14.5617 15.9325 14.5617C19.2472 14.5617 21.108 16.7087 21.108 17.8613C21.108 17.9969 21.0402 18.0572 20.8594 18.0572H10.998Z" fill="#A8A8A8"/>
</svg>
