<svg width="24" height="25" viewBox="0 0 24 25" fill="none" xmlns="http://www.w3.org/2000/svg">
<path d="M5.97321 17.1842H18.0193C18.7952 17.1842 19.2698 16.7623 19.2698 16.1295C19.2698 15.3309 18.5466 14.6454 17.8686 13.9975C17.3337 13.4777 17.2132 12.3929 17.1152 11.3909C16.9947 8.63365 16.1886 6.69001 14.2374 5.9894C13.9286 4.99498 13.1074 4.22656 11.9925 4.22656C10.885 4.22656 10.0639 4.99498 9.74749 5.9894C7.80385 6.69001 6.99023 8.63365 6.87723 11.3909C6.7793 12.3929 6.65123 13.4777 6.12388 13.9975C5.44587 14.6454 4.72266 15.3309 4.72266 16.1295C4.72266 16.7623 5.19727 17.1842 5.97321 17.1842ZM11.9925 20.2879C13.3334 20.2879 14.3052 19.3312 14.4032 18.2388H9.58929C9.68722 19.3312 10.659 20.2879 11.9925 20.2879Z" fill="#A8A8A8"/>
</svg>
