<svg width="32" height="33" viewBox="0 0 32 33" fill="none" xmlns="http://www.w3.org/2000/svg">
<g filter="url(#filter0_d_1199_13698)">
<path d="M6.78656 11.8274C6.78656 12.2191 7.0879 12.5581 7.57004 12.5581C7.80358 12.5581 8.01452 12.43 8.20285 12.2794L9.06167 11.5562V18.5623C9.06167 19.6772 9.73215 20.3402 10.8848 20.3402H21.0776C22.2227 20.3402 22.9007 19.6772 22.9007 18.5623V11.5185L23.8047 12.2794C23.9855 12.43 24.1964 12.5581 24.43 12.5581C24.8745 12.5581 25.2135 12.2794 25.2135 11.8424C25.2135 11.5863 25.1155 11.3829 24.9197 11.2171L22.9007 9.51458V6.30532C22.9007 5.96631 22.6822 5.75537 22.3432 5.75537H21.3036C20.9721 5.75537 20.7461 5.96631 20.7461 6.30532V7.70654L17.0773 4.62535C16.4219 4.0754 15.5932 4.0754 14.9378 4.62535L7.0879 11.2171C6.8845 11.3829 6.78656 11.6089 6.78656 11.8274ZM18.1697 13.9066C18.1697 13.5525 17.9436 13.3265 17.5896 13.3265H14.4255C14.0714 13.3265 13.8379 13.5525 13.8379 13.9066V18.841H11.284C10.817 18.841 10.5608 18.5774 10.5608 18.1027V10.2981L15.6761 6.00398C15.887 5.82317 16.1281 5.82317 16.339 6.00398L21.394 10.2529V18.1027C21.394 18.5774 21.1378 18.841 20.6708 18.841H18.1697V13.9066Z" fill="#00D6C4"/>
</g>
<defs>
<filter id="filter0_d_1199_13698" x="0" y="0.5" width="32" height="32" filterUnits="userSpaceOnUse" color-interpolation-filters="sRGB">
<feFlood flood-opacity="0" result="BackgroundImageFix"/>
<feColorMatrix in="SourceAlpha" type="matrix" values="0 0 0 0 0 0 0 0 0 0 0 0 0 0 0 0 0 0 127 0" result="hardAlpha"/>
<feOffset dy="4"/>
<feGaussianBlur stdDeviation="2"/>
<feComposite in2="hardAlpha" operator="out"/>
<feColorMatrix type="matrix" values="0 0 0 0 0 0 0 0 0 0 0 0 0 0 0 0 0 0 0.25 0"/>
<feBlend mode="normal" in2="BackgroundImageFix" result="effect1_dropShadow_1199_13698"/>
<feBlend mode="normal" in="SourceGraphic" in2="effect1_dropShadow_1199_13698" result="shape"/>
</filter>
</defs>
</svg>
